%FSLAX34Y34*%
%MOMM*%
%LNCOPPER_BOTTOM*%
G71*
G01*
%ADD10C, 0.254*%
%ADD11C, 1.600*%
%ADD12C, 1.700*%
%ADD13C, 2.500*%
%ADD14C, 0.800*%
%ADD15C, 0.250*%
%ADD16C, 0.318*%
%LPD*%
G54D10*
X412750Y-190500D02*
X412750Y-133350D01*
X400050Y-120650D01*
X107950Y-120650D01*
X95250Y-107950D01*
X95250Y-44450D01*
G54D10*
X209550Y-158750D02*
X209550Y-330200D01*
X222250Y-342900D01*
X406400Y-342900D01*
X438150Y-374650D01*
X260350Y-228600D02*
G54D11*
D03*
X285750Y-228600D02*
G54D11*
D03*
X311150Y-228600D02*
G54D11*
D03*
X336550Y-228600D02*
G54D11*
D03*
X361950Y-228600D02*
G54D11*
D03*
X387350Y-228600D02*
G54D11*
D03*
X412750Y-228600D02*
G54D11*
D03*
X438150Y-228600D02*
G54D11*
D03*
X463550Y-228600D02*
G54D11*
D03*
X488950Y-228600D02*
G54D11*
D03*
X514350Y-228600D02*
G54D11*
D03*
X539750Y-228600D02*
G54D11*
D03*
X565150Y-228600D02*
G54D11*
D03*
X590550Y-228600D02*
G54D11*
D03*
X260350Y-374650D02*
G54D11*
D03*
X285750Y-374650D02*
G54D11*
D03*
X311150Y-374650D02*
G54D11*
D03*
X336550Y-374650D02*
G54D11*
D03*
X361950Y-374650D02*
G54D11*
D03*
X387350Y-374650D02*
G54D11*
D03*
X412750Y-374650D02*
G54D11*
D03*
X438150Y-374650D02*
G54D11*
D03*
X463550Y-374650D02*
G54D11*
D03*
X488950Y-374650D02*
G54D11*
D03*
X514350Y-374650D02*
G54D11*
D03*
X539750Y-374650D02*
G54D11*
D03*
X565150Y-374650D02*
G54D11*
D03*
X590550Y-374650D02*
G54D11*
D03*
X260350Y-190500D02*
G54D11*
D03*
X285750Y-190500D02*
G54D11*
D03*
X311150Y-190500D02*
G54D11*
D03*
X336550Y-190500D02*
G54D11*
D03*
X361950Y-190500D02*
G54D11*
D03*
X387350Y-190500D02*
G54D11*
D03*
X412750Y-190500D02*
G54D11*
D03*
X438150Y-190500D02*
G54D11*
D03*
X463550Y-190500D02*
G54D11*
D03*
X488950Y-190500D02*
G54D11*
D03*
X514350Y-190500D02*
G54D11*
D03*
X539750Y-190500D02*
G54D11*
D03*
X565150Y-190500D02*
G54D11*
D03*
X590550Y-190500D02*
G54D11*
D03*
X260350Y-419100D02*
G54D12*
D03*
X285750Y-419100D02*
G54D12*
D03*
X311150Y-419100D02*
G54D12*
D03*
X336550Y-419100D02*
G54D12*
D03*
X361950Y-419100D02*
G54D12*
D03*
X387350Y-419100D02*
G54D12*
D03*
X412750Y-419100D02*
G54D12*
D03*
X438150Y-419100D02*
G54D12*
D03*
X463550Y-419100D02*
G54D12*
D03*
X488950Y-419100D02*
G54D12*
D03*
X514350Y-419100D02*
G54D12*
D03*
X539750Y-419100D02*
G54D12*
D03*
X565150Y-419100D02*
G54D11*
D03*
X590550Y-419100D02*
G54D11*
D03*
X57150Y-44450D02*
G54D13*
D03*
X95250Y-44450D02*
G54D13*
D03*
X133350Y-44450D02*
G54D13*
D03*
X190500Y-44450D02*
G54D13*
D03*
X228600Y-44450D02*
G54D13*
D03*
X266700Y-44450D02*
G54D13*
D03*
X323850Y-44450D02*
G54D13*
D03*
X361950Y-44450D02*
G54D13*
D03*
X400050Y-44450D02*
G54D13*
D03*
X457200Y-44450D02*
G54D13*
D03*
X495300Y-44450D02*
G54D13*
D03*
X533400Y-44450D02*
G54D13*
D03*
X590550Y-44450D02*
G54D13*
D03*
X628650Y-44450D02*
G54D13*
D03*
X666750Y-44450D02*
G54D13*
D03*
X44450Y-279400D02*
G54D13*
D03*
X44450Y-241300D02*
G54D13*
D03*
X44450Y-203200D02*
G54D13*
D03*
X44450Y-165100D02*
G54D13*
D03*
X44450Y-127000D02*
G54D13*
D03*
X44450Y-374650D02*
G54D13*
D03*
X44450Y-336550D02*
G54D13*
D03*
X44450Y-469900D02*
G54D13*
D03*
X44450Y-431800D02*
G54D13*
D03*
G54D10*
X260350Y-190500D02*
X260350Y-158750D01*
X254000Y-152400D01*
X215900Y-152400D01*
X209550Y-158750D01*
X203200Y-152400D01*
X127000Y-152400D01*
X101600Y-177800D01*
X101600Y-196850D01*
X95250Y-203200D01*
X44450Y-203200D01*
G54D14*
X57150Y-44450D02*
X57150Y-31750D01*
X69850Y-19050D01*
X177800Y-19050D01*
X190500Y-31750D01*
X190500Y-44450D01*
X190500Y-31750D01*
X203200Y-19050D01*
X311150Y-19050D01*
X323850Y-31750D01*
X323850Y-44450D01*
X323850Y-31750D01*
X336550Y-19050D01*
X444500Y-19050D01*
X457200Y-31750D01*
X457200Y-44450D01*
X457200Y-31750D01*
X469900Y-19050D01*
X577850Y-19050D01*
X590550Y-31750D01*
X590550Y-44450D01*
G54D14*
X44450Y-279400D02*
X31750Y-279400D01*
X19050Y-266700D01*
X19050Y-101600D01*
X57150Y-63500D01*
X57150Y-44450D01*
G54D14*
X590550Y-374650D02*
X590550Y-393700D01*
X565150Y-419100D01*
G54D14*
X44450Y-431800D02*
X95250Y-482600D01*
X552450Y-482600D01*
X565150Y-469900D01*
X565150Y-419100D01*
G54D14*
X514350Y-228600D02*
X514350Y-266700D01*
X590550Y-342900D01*
X590550Y-374650D01*
G54D14*
X44450Y-279400D02*
X31750Y-279400D01*
X19050Y-292100D01*
X19050Y-419100D01*
X31750Y-431800D01*
X44450Y-431800D01*
G54D15*
X285750Y-190500D02*
X285750Y-203200D01*
X292100Y-209550D01*
X482600Y-209550D01*
X488950Y-215900D01*
X488950Y-228600D01*
G36*
X226950Y-182500D02*
X242950Y-182500D01*
X242950Y-198500D01*
X226950Y-198500D01*
X226950Y-182500D01*
G37*
G36*
X226950Y-220600D02*
X242950Y-220600D01*
X242950Y-236600D01*
X226950Y-236600D01*
X226950Y-220600D01*
G37*
G36*
X226950Y-366650D02*
X242950Y-366650D01*
X242950Y-382650D01*
X226950Y-382650D01*
X226950Y-366650D01*
G37*
G36*
X226950Y-411100D02*
X242950Y-411100D01*
X242950Y-427100D01*
X226950Y-427100D01*
X226950Y-411100D01*
G37*
G54D15*
X234950Y-190500D02*
X234950Y-203200D01*
X241300Y-209550D01*
X279400Y-209550D01*
X285750Y-215900D01*
X323850Y-215900D01*
X336550Y-228600D01*
G54D16*
X676745Y-253372D02*
X658967Y-253372D01*
X658967Y-260039D01*
X660078Y-262705D01*
X662301Y-264039D01*
X664523Y-264039D01*
X666745Y-262705D01*
X667856Y-260039D01*
X668967Y-262705D01*
X671189Y-264039D01*
X673412Y-264039D01*
X675634Y-262705D01*
X676745Y-260039D01*
X676745Y-253372D01*
G54D16*
X667856Y-253372D02*
X667856Y-260039D01*
G54D16*
X662301Y-280928D02*
X673412Y-280928D01*
X675634Y-279594D01*
X676745Y-276928D01*
X676745Y-274261D01*
X675634Y-271594D01*
X673412Y-270261D01*
X662301Y-270261D01*
X660078Y-271594D01*
X658967Y-274261D01*
X658967Y-276928D01*
X660078Y-279594D01*
X662301Y-280928D01*
G54D16*
X676745Y-292483D02*
X658967Y-292483D01*
G54D16*
X658967Y-287150D02*
X658967Y-297817D01*
G54D16*
X676745Y-309372D02*
X658967Y-309372D01*
G54D16*
X658967Y-304039D02*
X658967Y-314706D01*
G54D16*
X662301Y-331595D02*
X673412Y-331595D01*
X675634Y-330261D01*
X676745Y-327595D01*
X676745Y-324928D01*
X675634Y-322261D01*
X673412Y-320928D01*
X662301Y-320928D01*
X660078Y-322261D01*
X658967Y-324928D01*
X658967Y-327595D01*
X660078Y-330261D01*
X662301Y-331595D01*
G54D16*
X676745Y-337817D02*
X658967Y-337817D01*
X670078Y-344484D01*
X658967Y-351150D01*
X676745Y-351150D01*
M02*
