%FSLAX34Y34*%
%MOMM*%
%LNSILK_TOP*%
G71*
G01*
%ADD10C, 0.254*%
%ADD11C, 0.203*%
%ADD12C, 0.156*%
%ADD13C, 0.244*%
%ADD14C, 0.250*%
%LPD*%
G54D10*
X603250Y-213519D02*
X219710Y-213519D01*
X219710Y-243999D01*
X603250Y-243999D01*
X603250Y-213519D01*
G54D10*
X247650Y-213519D02*
X247650Y-243999D01*
G54D10*
X603250Y-359569D02*
X219710Y-359569D01*
X219710Y-390049D01*
X603250Y-390049D01*
X603250Y-359569D01*
G54D10*
X247650Y-359569D02*
X247650Y-390049D01*
G54D10*
X603250Y-175419D02*
X219710Y-175419D01*
X219710Y-205899D01*
X603250Y-205899D01*
X603250Y-175419D01*
G54D10*
X247650Y-175419D02*
X247650Y-205899D01*
G54D10*
X603250Y-404019D02*
X219710Y-404019D01*
X219710Y-434499D01*
X603250Y-434499D01*
X603250Y-404019D01*
G54D10*
X247650Y-404019D02*
X247650Y-434499D01*
G54D11*
X311150Y-254000D02*
X311150Y-283570D01*
G54D11*
X590550Y-254000D02*
X590550Y-283570D01*
G54D11*
X311150Y-317500D02*
X311150Y-347070D01*
G54D11*
X590550Y-317500D02*
X590550Y-347070D01*
G54D12*
X102717Y-120906D02*
X95250Y-120906D01*
X95250Y-126350D01*
X96183Y-126350D01*
X98050Y-125572D01*
X99917Y-125572D01*
X101783Y-126350D01*
X102717Y-127906D01*
X102717Y-131017D01*
X101783Y-132572D01*
X99917Y-133350D01*
X98050Y-133350D01*
X96183Y-132572D01*
X95250Y-131017D01*
G54D12*
X106139Y-120906D02*
X110806Y-133350D01*
X115472Y-120906D01*
G54D12*
X95250Y-171450D02*
X95250Y-159006D01*
X99917Y-159006D01*
X101783Y-159783D01*
X102717Y-161339D01*
X102717Y-162894D01*
X101783Y-164450D01*
X99917Y-165228D01*
X95250Y-165228D01*
G54D12*
X106139Y-171450D02*
X106139Y-164450D01*
G54D12*
X106139Y-162117D02*
X106139Y-162117D01*
G54D12*
X109561Y-171450D02*
X109561Y-164450D01*
G54D12*
X109561Y-166006D02*
X110494Y-164917D01*
X112361Y-164450D01*
X114228Y-164917D01*
X115161Y-166006D01*
X115161Y-171450D01*
G54D12*
X124183Y-171450D02*
X124183Y-159006D01*
X118583Y-166783D01*
X118583Y-168339D01*
X126050Y-168339D01*
G54D12*
X95250Y-209550D02*
X95250Y-197106D01*
X99917Y-197106D01*
X101783Y-197883D01*
X102717Y-199439D01*
X102717Y-200994D01*
X101783Y-202550D01*
X99917Y-203328D01*
X95250Y-203328D01*
G54D12*
X106139Y-209550D02*
X106139Y-202550D01*
G54D12*
X106139Y-200217D02*
X106139Y-200217D01*
G54D12*
X109561Y-209550D02*
X109561Y-202550D01*
G54D12*
X109561Y-204106D02*
X110494Y-203017D01*
X112361Y-202550D01*
X114228Y-203017D01*
X115161Y-204106D01*
X115161Y-209550D01*
G54D12*
X126050Y-197106D02*
X118583Y-197106D01*
X118583Y-202550D01*
X119516Y-202550D01*
X121383Y-201772D01*
X123250Y-201772D01*
X125116Y-202550D01*
X126050Y-204106D01*
X126050Y-207217D01*
X125116Y-208772D01*
X123250Y-209550D01*
X121383Y-209550D01*
X119516Y-208772D01*
X118583Y-207217D01*
G54D12*
X95250Y-247650D02*
X95250Y-235206D01*
X99917Y-235206D01*
X101783Y-235983D01*
X102717Y-237539D01*
X102717Y-239094D01*
X101783Y-240650D01*
X99917Y-241428D01*
X95250Y-241428D01*
G54D12*
X106139Y-247650D02*
X106139Y-240650D01*
G54D12*
X106139Y-238317D02*
X106139Y-238317D01*
G54D12*
X109561Y-247650D02*
X109561Y-240650D01*
G54D12*
X109561Y-242206D02*
X110494Y-241117D01*
X112361Y-240650D01*
X114228Y-241117D01*
X115161Y-242206D01*
X115161Y-247650D01*
G54D12*
X118583Y-239872D02*
X123250Y-235206D01*
X123250Y-247650D01*
G54D12*
X134139Y-237539D02*
X133205Y-235983D01*
X131339Y-235206D01*
X129472Y-235206D01*
X127605Y-235983D01*
X126672Y-237539D01*
X126672Y-241428D01*
X126672Y-242206D01*
X129472Y-240650D01*
X131339Y-240650D01*
X133205Y-241428D01*
X134139Y-242983D01*
X134139Y-245317D01*
X133205Y-246872D01*
X131339Y-247650D01*
X129472Y-247650D01*
X127605Y-246872D01*
X126672Y-245317D01*
X126672Y-241428D01*
G54D12*
X98983Y-279528D02*
X102717Y-279528D01*
X102717Y-283417D01*
X101783Y-284972D01*
X99917Y-285750D01*
X98050Y-285750D01*
X96183Y-284972D01*
X95250Y-283417D01*
X95250Y-275639D01*
X96183Y-274083D01*
X98050Y-273306D01*
X99917Y-273306D01*
X101783Y-274083D01*
X102717Y-275639D01*
G54D12*
X106139Y-285750D02*
X106139Y-273306D01*
X113606Y-285750D01*
X113606Y-273306D01*
G54D12*
X117028Y-285750D02*
X117028Y-273306D01*
X121695Y-273306D01*
X123561Y-274083D01*
X124495Y-275639D01*
X124495Y-283417D01*
X123561Y-284972D01*
X121695Y-285750D01*
X117028Y-285750D01*
G54D12*
X95250Y-342900D02*
X99917Y-330456D01*
X104583Y-342900D01*
G54D12*
X97117Y-338233D02*
X102717Y-338233D01*
G54D12*
X115472Y-332789D02*
X115472Y-340567D01*
X114538Y-342122D01*
X112672Y-342900D01*
X110805Y-342900D01*
X108938Y-342122D01*
X108005Y-340567D01*
X108005Y-332789D01*
X108938Y-331233D01*
X110805Y-330456D01*
X112672Y-330456D01*
X114538Y-331233D01*
X115472Y-332789D01*
G54D12*
X95250Y-370889D02*
X96183Y-369333D01*
X98050Y-368556D01*
X99917Y-368556D01*
X101783Y-369333D01*
X102717Y-370889D01*
X102717Y-372444D01*
X101783Y-374000D01*
X99917Y-374778D01*
X101783Y-375556D01*
X102717Y-377111D01*
X102717Y-378667D01*
X101783Y-380222D01*
X99917Y-381000D01*
X98050Y-381000D01*
X96183Y-380222D01*
X95250Y-378667D01*
G54D12*
X106139Y-368556D02*
X110806Y-381000D01*
X115472Y-368556D01*
G54D12*
X118894Y-370889D02*
X119827Y-369333D01*
X121694Y-368556D01*
X123561Y-368556D01*
X125427Y-369333D01*
X126361Y-370889D01*
X126361Y-372444D01*
X125427Y-374000D01*
X123561Y-374778D01*
X125427Y-375556D01*
X126361Y-377111D01*
X126361Y-378667D01*
X125427Y-380222D01*
X123561Y-381000D01*
X121694Y-381000D01*
X119827Y-380222D01*
X118894Y-378667D01*
G54D12*
X98983Y-431928D02*
X102717Y-431928D01*
X102717Y-435817D01*
X101783Y-437372D01*
X99917Y-438150D01*
X98050Y-438150D01*
X96183Y-437372D01*
X95250Y-435817D01*
X95250Y-428039D01*
X96183Y-426483D01*
X98050Y-425706D01*
X99917Y-425706D01*
X101783Y-426483D01*
X102717Y-428039D01*
G54D12*
X106139Y-438150D02*
X106139Y-425706D01*
X113606Y-438150D01*
X113606Y-425706D01*
G54D12*
X117028Y-438150D02*
X117028Y-425706D01*
X121695Y-425706D01*
X123561Y-426483D01*
X124495Y-428039D01*
X124495Y-435817D01*
X123561Y-437372D01*
X121695Y-438150D01*
X117028Y-438150D01*
G54D12*
X95250Y-463806D02*
X99917Y-476250D01*
X104583Y-463806D01*
G54D12*
X108005Y-476250D02*
X108005Y-469250D01*
G54D12*
X108005Y-466917D02*
X108005Y-466917D01*
G54D12*
X111427Y-476250D02*
X111427Y-469250D01*
G54D12*
X111427Y-470806D02*
X112360Y-469717D01*
X114227Y-469250D01*
X116094Y-469717D01*
X117027Y-470806D01*
X117027Y-476250D01*
G54D13*
X644272Y-337033D02*
X646717Y-332633D01*
X649161Y-331167D01*
X654050Y-331167D01*
G54D13*
X654050Y-342900D02*
X634494Y-342900D01*
X634494Y-335567D01*
X635717Y-332633D01*
X638161Y-331167D01*
X640606Y-331167D01*
X643050Y-332633D01*
X644272Y-335567D01*
X644272Y-342900D01*
G54D13*
X652828Y-316989D02*
X654050Y-319336D01*
X654050Y-322269D01*
X652828Y-325202D01*
X650383Y-325789D01*
X646228Y-325789D01*
X643783Y-324322D01*
X643050Y-321389D01*
X643783Y-318456D01*
X645494Y-316989D01*
X647939Y-316989D01*
X647939Y-325789D01*
G54D13*
X643050Y-311611D02*
X654050Y-305744D01*
X643050Y-299878D01*
G54D13*
X641828Y-288829D02*
X634494Y-281496D01*
X654050Y-281496D01*
G54D13*
X654050Y-276118D02*
X654050Y-276118D01*
G54D13*
X654050Y-259007D02*
X654050Y-270740D01*
X652828Y-270740D01*
X650383Y-269273D01*
X643050Y-260473D01*
X640606Y-259007D01*
X638161Y-259007D01*
X635717Y-260473D01*
X634494Y-263407D01*
X634494Y-266340D01*
X635717Y-269273D01*
X638161Y-270740D01*
G54D13*
X558800Y-291594D02*
X558800Y-307483D01*
X560267Y-309928D01*
X563200Y-311150D01*
X566133Y-311150D01*
X569067Y-309928D01*
X570533Y-307483D01*
X570533Y-291594D01*
G54D13*
X575911Y-307483D02*
X577378Y-309928D01*
X580311Y-311150D01*
X583244Y-311150D01*
X586178Y-309928D01*
X587644Y-307483D01*
X587644Y-305039D01*
X586178Y-302594D01*
X583244Y-301372D01*
X580311Y-301372D01*
X577378Y-300150D01*
X575911Y-297706D01*
X575911Y-295261D01*
X577378Y-292817D01*
X580311Y-291594D01*
X583244Y-291594D01*
X586178Y-292817D01*
X587644Y-295261D01*
G54D13*
X593022Y-311150D02*
X593022Y-291594D01*
X600355Y-291594D01*
X603289Y-292817D01*
X604755Y-295261D01*
X604755Y-297706D01*
X603289Y-300150D01*
X600355Y-301372D01*
X603289Y-302594D01*
X604755Y-305039D01*
X604755Y-307483D01*
X603289Y-309928D01*
X600355Y-311150D01*
X593022Y-311150D01*
G54D13*
X593022Y-301372D02*
X600355Y-301372D01*
G54D13*
X222250Y-291594D02*
X222250Y-311150D01*
X229583Y-298928D01*
X236917Y-311150D01*
X236917Y-291594D01*
G54D13*
X242295Y-311150D02*
X242295Y-300150D01*
G54D13*
X242295Y-296483D02*
X242295Y-296483D01*
G54D13*
X250606Y-311150D02*
X250606Y-292817D01*
X252073Y-291594D01*
X253540Y-292328D01*
G54D13*
X247673Y-300150D02*
X253540Y-300150D01*
G54D13*
X258918Y-311150D02*
X258918Y-300150D01*
G54D13*
X258918Y-296483D02*
X258918Y-296483D01*
G54D13*
X330200Y-334344D02*
X341933Y-329456D01*
G54D13*
X330200Y-334344D02*
X341933Y-339233D01*
G54D13*
X347311Y-334344D02*
X359044Y-334344D01*
G54D13*
X370093Y-334344D02*
X381826Y-334344D01*
G54D13*
X404217Y-323344D02*
X404217Y-342900D01*
X411550Y-330678D01*
X418884Y-342900D01*
X418884Y-323344D01*
G54D13*
X424262Y-342900D02*
X424262Y-331900D01*
G54D13*
X424262Y-328233D02*
X424262Y-328233D01*
G54D13*
X432573Y-342900D02*
X432573Y-324567D01*
X434040Y-323344D01*
X435507Y-324078D01*
G54D13*
X429640Y-331900D02*
X435507Y-331900D01*
G54D13*
X440885Y-342900D02*
X440885Y-331900D01*
G54D13*
X440885Y-328233D02*
X440885Y-328233D01*
G54D13*
X451934Y-342900D02*
X451934Y-323344D01*
G54D13*
X451934Y-336789D02*
X463667Y-323344D01*
G54D13*
X456334Y-333122D02*
X463667Y-342900D01*
G54D13*
X469045Y-342900D02*
X469045Y-331900D01*
G54D13*
X469045Y-328233D02*
X469045Y-328233D01*
G54D13*
X477356Y-323344D02*
X477356Y-341678D01*
X478823Y-342900D01*
X480290Y-342411D01*
G54D13*
X474423Y-331900D02*
X480290Y-331900D01*
G54D13*
X498672Y-333122D02*
X495739Y-333122D01*
X492806Y-331900D01*
X491339Y-329456D01*
X491339Y-327011D01*
X492806Y-324567D01*
X495739Y-323344D01*
X498672Y-323344D01*
X501606Y-324567D01*
X503072Y-327011D01*
X503072Y-329456D01*
X501606Y-331900D01*
X498672Y-333122D01*
X501606Y-334344D01*
X503072Y-336789D01*
X503072Y-339233D01*
X501606Y-341678D01*
X498672Y-342900D01*
X495739Y-342900D01*
X492806Y-341678D01*
X491339Y-339233D01*
X491339Y-336789D01*
X492806Y-334344D01*
X495739Y-333122D01*
G54D13*
X525463Y-334344D02*
X537196Y-334344D01*
G54D13*
X548245Y-334344D02*
X559978Y-334344D01*
G54D13*
X565356Y-329456D02*
X577089Y-334344D01*
G54D13*
X565356Y-339233D02*
X577089Y-334344D01*
G54D13*
X330200Y-264494D02*
X341933Y-259606D01*
G54D13*
X330200Y-264494D02*
X341933Y-269383D01*
G54D13*
X347311Y-264494D02*
X359044Y-264494D01*
G54D13*
X370093Y-264494D02*
X381826Y-264494D01*
G54D13*
X404217Y-253494D02*
X404217Y-273050D01*
X411550Y-260828D01*
X418884Y-273050D01*
X418884Y-253494D01*
G54D13*
X424262Y-273050D02*
X424262Y-262050D01*
G54D13*
X424262Y-258383D02*
X424262Y-258383D01*
G54D13*
X432573Y-273050D02*
X432573Y-254717D01*
X434040Y-253494D01*
X435507Y-254228D01*
G54D13*
X429640Y-262050D02*
X435507Y-262050D01*
G54D13*
X440885Y-273050D02*
X440885Y-262050D01*
G54D13*
X440885Y-258383D02*
X440885Y-258383D01*
G54D13*
X451934Y-273050D02*
X451934Y-253494D01*
G54D13*
X451934Y-266939D02*
X463667Y-253494D01*
G54D13*
X456334Y-263272D02*
X463667Y-273050D01*
G54D13*
X469045Y-273050D02*
X469045Y-262050D01*
G54D13*
X469045Y-258383D02*
X469045Y-258383D01*
G54D13*
X477356Y-253494D02*
X477356Y-271828D01*
X478823Y-273050D01*
X480290Y-272561D01*
G54D13*
X474423Y-262050D02*
X480290Y-262050D01*
G54D13*
X498672Y-263272D02*
X495739Y-263272D01*
X492806Y-262050D01*
X491339Y-259606D01*
X491339Y-257161D01*
X492806Y-254717D01*
X495739Y-253494D01*
X498672Y-253494D01*
X501606Y-254717D01*
X503072Y-257161D01*
X503072Y-259606D01*
X501606Y-262050D01*
X498672Y-263272D01*
X501606Y-264494D01*
X503072Y-266939D01*
X503072Y-269383D01*
X501606Y-271828D01*
X498672Y-273050D01*
X495739Y-273050D01*
X492806Y-271828D01*
X491339Y-269383D01*
X491339Y-266939D01*
X492806Y-264494D01*
X495739Y-263272D01*
G54D13*
X525463Y-264494D02*
X537196Y-264494D01*
G54D13*
X548245Y-264494D02*
X559978Y-264494D01*
G54D13*
X565356Y-259606D02*
X577089Y-264494D01*
G54D13*
X565356Y-269383D02*
X577089Y-264494D01*
G54D12*
X101600Y-101600D02*
X101600Y-89156D01*
X106267Y-89156D01*
X108133Y-89933D01*
X109067Y-91489D01*
X109067Y-93044D01*
X108133Y-94600D01*
X106267Y-95378D01*
X101600Y-95378D01*
G54D12*
X112489Y-101600D02*
X112489Y-94600D01*
G54D12*
X112489Y-92267D02*
X112489Y-92267D01*
G54D12*
X115911Y-101600D02*
X115911Y-94600D01*
G54D12*
X115911Y-96156D02*
X116844Y-95067D01*
X118711Y-94600D01*
X120578Y-95067D01*
X121511Y-96156D01*
X121511Y-101600D01*
G54D12*
X124933Y-93822D02*
X129600Y-89156D01*
X129600Y-101600D01*
G54D12*
X138622Y-101600D02*
X138622Y-89156D01*
X133022Y-96933D01*
X133022Y-98489D01*
X140489Y-98489D01*
G54D12*
X215900Y-101600D02*
X215900Y-89156D01*
X220567Y-89156D01*
X222433Y-89933D01*
X223367Y-91489D01*
X223367Y-93044D01*
X222433Y-94600D01*
X220567Y-95378D01*
X215900Y-95378D01*
G54D12*
X226789Y-101600D02*
X226789Y-94600D01*
G54D12*
X226789Y-92267D02*
X226789Y-92267D01*
G54D12*
X230211Y-101600D02*
X230211Y-94600D01*
G54D12*
X230211Y-96156D02*
X231144Y-95067D01*
X233011Y-94600D01*
X234878Y-95067D01*
X235811Y-96156D01*
X235811Y-101600D01*
G54D12*
X246700Y-101600D02*
X239233Y-101600D01*
X239233Y-100822D01*
X240166Y-99267D01*
X245766Y-94600D01*
X246700Y-93044D01*
X246700Y-91489D01*
X245766Y-89933D01*
X243900Y-89156D01*
X242033Y-89156D01*
X240166Y-89933D01*
X239233Y-91489D01*
G54D12*
X342900Y-101600D02*
X342900Y-89156D01*
X347567Y-89156D01*
X349433Y-89933D01*
X350367Y-91489D01*
X350367Y-93044D01*
X349433Y-94600D01*
X347567Y-95378D01*
X342900Y-95378D01*
G54D12*
X353789Y-101600D02*
X353789Y-94600D01*
G54D12*
X353789Y-92267D02*
X353789Y-92267D01*
G54D12*
X357211Y-101600D02*
X357211Y-94600D01*
G54D12*
X357211Y-96156D02*
X358144Y-95067D01*
X360011Y-94600D01*
X361878Y-95067D01*
X362811Y-96156D01*
X362811Y-101600D01*
G54D12*
X366233Y-93822D02*
X370900Y-89156D01*
X370900Y-101600D01*
G54D12*
X381789Y-101600D02*
X374322Y-101600D01*
X374322Y-100822D01*
X375255Y-99267D01*
X380855Y-94600D01*
X381789Y-93044D01*
X381789Y-91489D01*
X380855Y-89933D01*
X378989Y-89156D01*
X377122Y-89156D01*
X375255Y-89933D01*
X374322Y-91489D01*
G54D12*
X476250Y-101600D02*
X476250Y-89156D01*
X480917Y-89156D01*
X482783Y-89933D01*
X483717Y-91489D01*
X483717Y-93044D01*
X482783Y-94600D01*
X480917Y-95378D01*
X476250Y-95378D01*
G54D12*
X487139Y-101600D02*
X487139Y-94600D01*
G54D12*
X487139Y-92267D02*
X487139Y-92267D01*
G54D12*
X490561Y-101600D02*
X490561Y-94600D01*
G54D12*
X490561Y-96156D02*
X491494Y-95067D01*
X493361Y-94600D01*
X495228Y-95067D01*
X496161Y-96156D01*
X496161Y-101600D01*
G54D12*
X499583Y-93822D02*
X504250Y-89156D01*
X504250Y-101600D01*
G54D12*
X507672Y-91489D02*
X508605Y-89933D01*
X510472Y-89156D01*
X512339Y-89156D01*
X514205Y-89933D01*
X515139Y-91489D01*
X515139Y-93044D01*
X514205Y-94600D01*
X512339Y-95378D01*
X514205Y-96156D01*
X515139Y-97711D01*
X515139Y-99267D01*
X514205Y-100822D01*
X512339Y-101600D01*
X510472Y-101600D01*
X508605Y-100822D01*
X507672Y-99267D01*
G54D12*
X609600Y-101600D02*
X609600Y-89156D01*
X614267Y-89156D01*
X616133Y-89933D01*
X617067Y-91489D01*
X617067Y-93044D01*
X616133Y-94600D01*
X614267Y-95378D01*
X609600Y-95378D01*
G54D12*
X620489Y-101600D02*
X620489Y-94600D01*
G54D12*
X620489Y-92267D02*
X620489Y-92267D01*
G54D12*
X623911Y-101600D02*
X623911Y-94600D01*
G54D12*
X623911Y-96156D02*
X624844Y-95067D01*
X626711Y-94600D01*
X628578Y-95067D01*
X629511Y-96156D01*
X629511Y-101600D01*
G54D12*
X632933Y-93822D02*
X637600Y-89156D01*
X637600Y-101600D01*
G54D12*
X648489Y-89156D02*
X641022Y-89156D01*
X641022Y-94600D01*
X641955Y-94600D01*
X643822Y-93822D01*
X645689Y-93822D01*
X647555Y-94600D01*
X648489Y-96156D01*
X648489Y-99267D01*
X647555Y-100822D01*
X645689Y-101600D01*
X643822Y-101600D01*
X641955Y-100822D01*
X641022Y-99267D01*
G54D12*
X580339Y-114428D02*
X582828Y-114428D01*
X582828Y-118317D01*
X582206Y-119872D01*
X580961Y-120650D01*
X579717Y-120650D01*
X578472Y-119872D01*
X577850Y-118317D01*
X577850Y-110539D01*
X578472Y-108983D01*
X579717Y-108206D01*
X580961Y-108206D01*
X582206Y-108983D01*
X582828Y-110539D01*
G54D12*
X586250Y-120650D02*
X586250Y-108206D01*
X591228Y-120650D01*
X591228Y-108206D01*
G54D12*
X594650Y-120650D02*
X594650Y-108206D01*
X597761Y-108206D01*
X599006Y-108983D01*
X599628Y-110539D01*
X599628Y-118317D01*
X599006Y-119872D01*
X597761Y-120650D01*
X594650Y-120650D01*
G54D12*
X620780Y-118317D02*
X621402Y-119872D01*
X622647Y-120650D01*
X623891Y-120650D01*
X625136Y-119872D01*
X625758Y-118317D01*
X625758Y-116761D01*
X625136Y-115206D01*
X623891Y-114428D01*
X622647Y-114428D01*
X621402Y-113650D01*
X620780Y-112094D01*
X620780Y-110539D01*
X621402Y-108983D01*
X622647Y-108206D01*
X623891Y-108206D01*
X625136Y-108983D01*
X625758Y-110539D01*
G54D12*
X629180Y-120650D02*
X629180Y-113650D01*
G54D12*
X629180Y-111317D02*
X629180Y-111317D01*
G54D12*
X632602Y-122983D02*
X633846Y-123761D01*
X634718Y-123761D01*
X635962Y-122983D01*
X636335Y-121428D01*
X636335Y-113650D01*
G54D12*
X636335Y-115672D02*
X635713Y-114117D01*
X634469Y-113650D01*
X633224Y-114117D01*
X632602Y-115672D01*
X632602Y-118783D01*
X633224Y-120339D01*
X634469Y-120650D01*
X635713Y-120339D01*
X636335Y-118783D01*
G54D12*
X662465Y-108206D02*
X657487Y-108206D01*
X657487Y-113650D01*
X658109Y-113650D01*
X659354Y-112872D01*
X660598Y-112872D01*
X661843Y-113650D01*
X662465Y-115206D01*
X662465Y-118317D01*
X661843Y-119872D01*
X660598Y-120650D01*
X659354Y-120650D01*
X658109Y-119872D01*
X657487Y-118317D01*
G54D12*
X665887Y-108206D02*
X668998Y-120650D01*
X672109Y-108206D01*
G54D14*
X31750Y-6350D02*
X158750Y-6350D01*
X158750Y-82550D01*
X31750Y-82550D01*
X31750Y-6350D01*
G54D14*
X6350Y-101600D02*
X82550Y-101600D01*
X82550Y-304800D01*
X6350Y-304800D01*
X6350Y-101600D01*
G54D14*
X82550Y-406400D02*
X6350Y-406400D01*
X6350Y-495300D01*
X82550Y-495300D01*
X82550Y-406400D01*
G54D12*
X446989Y-114428D02*
X449478Y-114428D01*
X449478Y-118317D01*
X448856Y-119872D01*
X447611Y-120650D01*
X446367Y-120650D01*
X445122Y-119872D01*
X444500Y-118317D01*
X444500Y-110539D01*
X445122Y-108983D01*
X446367Y-108206D01*
X447611Y-108206D01*
X448856Y-108983D01*
X449478Y-110539D01*
G54D12*
X452900Y-120650D02*
X452900Y-108206D01*
X457878Y-120650D01*
X457878Y-108206D01*
G54D12*
X461300Y-120650D02*
X461300Y-108206D01*
X464411Y-108206D01*
X465656Y-108983D01*
X466278Y-110539D01*
X466278Y-118317D01*
X465656Y-119872D01*
X464411Y-120650D01*
X461300Y-120650D01*
G54D12*
X487430Y-118317D02*
X488052Y-119872D01*
X489297Y-120650D01*
X490541Y-120650D01*
X491786Y-119872D01*
X492408Y-118317D01*
X492408Y-116761D01*
X491786Y-115206D01*
X490541Y-114428D01*
X489297Y-114428D01*
X488052Y-113650D01*
X487430Y-112094D01*
X487430Y-110539D01*
X488052Y-108983D01*
X489297Y-108206D01*
X490541Y-108206D01*
X491786Y-108983D01*
X492408Y-110539D01*
G54D12*
X495830Y-120650D02*
X495830Y-113650D01*
G54D12*
X495830Y-111317D02*
X495830Y-111317D01*
G54D12*
X499252Y-122983D02*
X500496Y-123761D01*
X501368Y-123761D01*
X502612Y-122983D01*
X502985Y-121428D01*
X502985Y-113650D01*
G54D12*
X502985Y-115672D02*
X502363Y-114117D01*
X501119Y-113650D01*
X499874Y-114117D01*
X499252Y-115672D01*
X499252Y-118783D01*
X499874Y-120339D01*
X501119Y-120650D01*
X502363Y-120339D01*
X502985Y-118783D01*
G54D12*
X529115Y-108206D02*
X524137Y-108206D01*
X524137Y-113650D01*
X524759Y-113650D01*
X526004Y-112872D01*
X527248Y-112872D01*
X528493Y-113650D01*
X529115Y-115206D01*
X529115Y-118317D01*
X528493Y-119872D01*
X527248Y-120650D01*
X526004Y-120650D01*
X524759Y-119872D01*
X524137Y-118317D01*
G54D12*
X532537Y-108206D02*
X535648Y-120650D01*
X538759Y-108206D01*
G54D12*
X313639Y-114428D02*
X316128Y-114428D01*
X316128Y-118317D01*
X315506Y-119872D01*
X314261Y-120650D01*
X313017Y-120650D01*
X311772Y-119872D01*
X311150Y-118317D01*
X311150Y-110539D01*
X311772Y-108983D01*
X313017Y-108206D01*
X314261Y-108206D01*
X315506Y-108983D01*
X316128Y-110539D01*
G54D12*
X319550Y-120650D02*
X319550Y-108206D01*
X324528Y-120650D01*
X324528Y-108206D01*
G54D12*
X327950Y-120650D02*
X327950Y-108206D01*
X331061Y-108206D01*
X332306Y-108983D01*
X332928Y-110539D01*
X332928Y-118317D01*
X332306Y-119872D01*
X331061Y-120650D01*
X327950Y-120650D01*
G54D12*
X354080Y-118317D02*
X354702Y-119872D01*
X355947Y-120650D01*
X357191Y-120650D01*
X358436Y-119872D01*
X359058Y-118317D01*
X359058Y-116761D01*
X358436Y-115206D01*
X357191Y-114428D01*
X355947Y-114428D01*
X354702Y-113650D01*
X354080Y-112094D01*
X354080Y-110539D01*
X354702Y-108983D01*
X355947Y-108206D01*
X357191Y-108206D01*
X358436Y-108983D01*
X359058Y-110539D01*
G54D12*
X362480Y-120650D02*
X362480Y-113650D01*
G54D12*
X362480Y-111317D02*
X362480Y-111317D01*
G54D12*
X365902Y-122983D02*
X367146Y-123761D01*
X368018Y-123761D01*
X369262Y-122983D01*
X369635Y-121428D01*
X369635Y-113650D01*
G54D12*
X369635Y-115672D02*
X369013Y-114117D01*
X367769Y-113650D01*
X366524Y-114117D01*
X365902Y-115672D01*
X365902Y-118783D01*
X366524Y-120339D01*
X367769Y-120650D01*
X369013Y-120339D01*
X369635Y-118783D01*
G54D12*
X395765Y-108206D02*
X390787Y-108206D01*
X390787Y-113650D01*
X391409Y-113650D01*
X392654Y-112872D01*
X393898Y-112872D01*
X395142Y-113650D01*
X395765Y-115206D01*
X395765Y-118317D01*
X395142Y-119872D01*
X393898Y-120650D01*
X392654Y-120650D01*
X391409Y-119872D01*
X390787Y-118317D01*
G54D12*
X399187Y-108206D02*
X402298Y-120650D01*
X405409Y-108206D01*
G54D12*
X180289Y-114428D02*
X182778Y-114428D01*
X182778Y-118317D01*
X182156Y-119872D01*
X180911Y-120650D01*
X179667Y-120650D01*
X178422Y-119872D01*
X177800Y-118317D01*
X177800Y-110539D01*
X178422Y-108983D01*
X179667Y-108206D01*
X180911Y-108206D01*
X182156Y-108983D01*
X182778Y-110539D01*
G54D12*
X186200Y-120650D02*
X186200Y-108206D01*
X191178Y-120650D01*
X191178Y-108206D01*
G54D12*
X194600Y-120650D02*
X194600Y-108206D01*
X197711Y-108206D01*
X198956Y-108983D01*
X199578Y-110539D01*
X199578Y-118317D01*
X198956Y-119872D01*
X197711Y-120650D01*
X194600Y-120650D01*
G54D12*
X220730Y-118317D02*
X221352Y-119872D01*
X222597Y-120650D01*
X223841Y-120650D01*
X225086Y-119872D01*
X225708Y-118317D01*
X225708Y-116761D01*
X225086Y-115206D01*
X223841Y-114428D01*
X222597Y-114428D01*
X221352Y-113650D01*
X220730Y-112094D01*
X220730Y-110539D01*
X221352Y-108983D01*
X222597Y-108206D01*
X223841Y-108206D01*
X225086Y-108983D01*
X225708Y-110539D01*
G54D12*
X229130Y-120650D02*
X229130Y-113650D01*
G54D12*
X229130Y-111317D02*
X229130Y-111317D01*
G54D12*
X232552Y-122983D02*
X233796Y-123761D01*
X234668Y-123761D01*
X235912Y-122983D01*
X236285Y-121428D01*
X236285Y-113650D01*
G54D12*
X236285Y-115672D02*
X235663Y-114117D01*
X234419Y-113650D01*
X233174Y-114117D01*
X232552Y-115672D01*
X232552Y-118783D01*
X233174Y-120339D01*
X234419Y-120650D01*
X235663Y-120339D01*
X236285Y-118783D01*
G54D12*
X262415Y-108206D02*
X257437Y-108206D01*
X257437Y-113650D01*
X258059Y-113650D01*
X259304Y-112872D01*
X260548Y-112872D01*
X261792Y-113650D01*
X262415Y-115206D01*
X262415Y-118317D01*
X261792Y-119872D01*
X260548Y-120650D01*
X259304Y-120650D01*
X258059Y-119872D01*
X257437Y-118317D01*
G54D12*
X265837Y-108206D02*
X268948Y-120650D01*
X272059Y-108206D01*
G54D14*
X82550Y-311150D02*
X6350Y-311150D01*
X6350Y-400050D01*
X82550Y-400050D01*
X82550Y-311150D01*
G54D14*
X165100Y-6350D02*
X292100Y-6350D01*
X292100Y-82550D01*
X165100Y-82550D01*
X165100Y-6350D01*
G54D14*
X298450Y-6350D02*
X425450Y-6350D01*
X425450Y-82550D01*
X298450Y-82550D01*
X298450Y-6350D01*
G54D14*
X431800Y-6350D02*
X558800Y-6350D01*
X558800Y-82550D01*
X431800Y-82550D01*
X431800Y-6350D01*
G54D14*
X565150Y-6350D02*
X692150Y-6350D01*
X692150Y-82550D01*
X565150Y-82550D01*
X565150Y-6350D01*
M02*
