; Drill file
; Format: 2.4 (00.0000)
M48
INCH
T01C0.0315
T02C0.0472
T03C0.1378
%
G05
G90
T01
X009250Y-016500
X010250Y-016500
X011250Y-016500
X012250Y-016500
X013250Y-016500
X014250Y-016500
X015250Y-016500
X016250Y-016500
X017250Y-016500
X018250Y-016500
X019250Y-016500
X020250Y-016500
X021250Y-016500
X022250Y-016500
X023250Y-016500
X023250Y-014750
X022250Y-014750
X021250Y-014750
X020250Y-014750
X019250Y-014750
X018250Y-014750
X017250Y-014750
X016250Y-014750
X015250Y-014750
X014250Y-014750
X013250Y-014750
X012250Y-014750
X011250Y-014750
X010250Y-014750
X009250Y-014750
X009250Y-009000
X010250Y-009000
X011250Y-009000
X012250Y-009000
X013250Y-009000
X014250Y-009000
X015250Y-009000
X016250Y-009000
X017250Y-009000
X018250Y-009000
X019250Y-009000
X020250Y-009000
X021250Y-009000
X022250Y-009000
X023250Y-009000
X023250Y-007500
X022250Y-007500
X021250Y-007500
X020250Y-007500
X019250Y-007500
X018250Y-007500
X017250Y-007500
X016250Y-007500
X015250Y-007500
X014250Y-007500
X013250Y-007500
X012250Y-007500
X011250Y-007500
X010250Y-007500
X009250Y-007500
T02
X001750Y-018500
X001750Y-017000
X001750Y-014750
X001750Y-013250
X001750Y-011000
X001750Y-009500
X001750Y-008000
X001750Y-006500
X001750Y-005000
X002250Y-001750
X003750Y-001750
X005250Y-001750
X007500Y-001750
X009000Y-001750
X010500Y-001750
X012750Y-001750
X014250Y-001750
X015750Y-001750
X018000Y-001750
X019500Y-001750
X021000Y-001750
X023250Y-001750
X024750Y-001750
X026250Y-001750
T03
X006500Y-016500
X006500Y-007500
X026250Y-007500
X026250Y-016500
M30
